<svg width="43" height="36" viewBox="0 0 43 36" fill="none" xmlns="http://www.w3.org/2000/svg">
<g filter="url(#filter0_bd_42_53)">
<path d="M27.4622 8.5129L21.3781 17.1245C21.1221 17.4988 20.7382 17.743 20.3145 17.801C19.8908 17.859 19.4638 17.7258 19.1316 17.4321L13.2909 12.4086L8.03043 19.872C7.64949 20.5355 6.90757 20.8337 6.22524 20.5974C5.54291 20.3612 5.09227 19.6501 5.12877 18.8673C5.12562 18.48 5.24465 18.1034 5.46574 17.8011L11.7558 8.90248C12.0087 8.53117 12.3875 8.2871 12.8067 8.22537C13.2258 8.16364 13.6501 8.28946 13.9835 8.57441L19.8243 13.6184L24.9537 6.38051C25.2003 6.00733 25.5745 5.7596 25.9908 5.69391C26.4071 5.62822 26.8299 5.75019 27.1627 6.03194C27.8502 6.62169 27.983 7.7042 27.4622 8.4719V8.5129Z" fill="url(#paint0_linear_42_53)"/>
<path d="M21.2147 17.0091L21.2147 17.0091L21.213 17.0116C20.9867 17.3425 20.6514 17.553 20.2874 17.6029C19.9238 17.6526 19.5545 17.5391 19.2641 17.2822L19.262 17.2804L13.4213 12.257L13.2543 12.1134L13.1274 12.2934L7.86696 19.7568L7.86161 19.7644L7.85699 19.7724C7.51969 20.3599 6.87453 20.6106 6.29068 20.4084C5.70156 20.2044 5.2957 19.5812 5.32856 18.8767L5.32886 18.8767L5.32877 18.8657C5.32595 18.5198 5.43238 18.1855 5.62717 17.9192L5.62719 17.9192L5.62906 17.9166L11.9191 9.01792L11.9191 9.01794L11.9211 9.01506C12.1447 8.68683 12.4756 8.47629 12.8358 8.42324C13.1954 8.37028 13.5619 8.47743 13.8532 8.72613C13.8533 8.72624 13.8535 8.72635 13.8536 8.72646L19.6936 13.7697L19.8602 13.9136L19.9875 13.734L25.1168 6.49615L25.1169 6.49621L25.1205 6.49077C25.3383 6.16122 25.6648 5.94782 26.0219 5.89147C26.3783 5.83523 26.7429 5.9388 27.0329 6.18413C27.6399 6.70526 27.7625 7.6731 27.2967 8.35961L27.2622 8.41045V8.44938L21.2147 17.0091Z" stroke="url(#paint1_linear_42_53)" stroke-width="0.4"/>
</g>
<defs>
<filter id="filter0_bd_42_53" x="-9.87329" y="-9.32349" width="52.6533" height="45.0012" filterUnits="userSpaceOnUse" color-interpolation-filters="sRGB">
<feFlood flood-opacity="0" result="BackgroundImageFix"/>
<feGaussianBlur in="BackgroundImageFix" stdDeviation="7.5"/>
<feComposite in2="SourceAlpha" operator="in" result="effect1_backgroundBlur_42_53"/>
<feColorMatrix in="SourceAlpha" type="matrix" values="0 0 0 0 0 0 0 0 0 0 0 0 0 0 0 0 0 0 127 0" result="hardAlpha"/>
<feOffset dx="5" dy="5"/>
<feGaussianBlur stdDeviation="5"/>
<feColorMatrix type="matrix" values="0 0 0 0 1 0 0 0 0 0.321569 0 0 0 0 0.54902 0 0 0 0.5 0"/>
<feBlend mode="normal" in2="effect1_backgroundBlur_42_53" result="effect2_dropShadow_42_53"/>
<feBlend mode="normal" in="SourceGraphic" in2="effect2_dropShadow_42_53" result="shape"/>
</filter>
<linearGradient id="paint0_linear_42_53" x1="26.1739" y1="8.38542" x2="0.974547" y2="9.62614" gradientUnits="userSpaceOnUse">
<stop stop-color="white"/>
<stop offset="1" stop-color="white" stop-opacity="0.2"/>
</linearGradient>
<linearGradient id="paint1_linear_42_53" x1="8.73274" y1="7.42417" x2="16.8733" y2="22.6495" gradientUnits="userSpaceOnUse">
<stop stop-color="white" stop-opacity="0.25"/>
<stop offset="1" stop-color="white" stop-opacity="0"/>
</linearGradient>
</defs>
</svg>
