<svg width="46" height="50" viewBox="0 0 46 50" fill="none" xmlns="http://www.w3.org/2000/svg">
<g filter="url(#filter0_bd_42_40)">
<mask id="path-1-inside-1_42_40" fill="white">
<path fill-rule="evenodd" clip-rule="evenodd" d="M18.4062 5.5144C17.3787 5.5144 16.5325 6.41723 16.5325 7.53502V32.0833C16.5325 33.1796 17.3787 34.0824 18.4062 34.0824C19.4538 34.0824 20.3 33.1796 20.3 32.0833V7.53502C20.3 6.41723 19.4538 5.5144 18.4062 5.5144ZM7.82925 13.4471C6.80175 13.4471 5.95557 14.3499 5.95557 15.4677L5.95557 32.084C5.95557 33.1803 6.80175 34.0831 7.82925 34.0831C8.8769 34.0831 9.72308 33.1803 9.72308 32.084V15.4677C9.72308 14.3499 8.8769 13.4471 7.82925 13.4471ZM26.9492 24.2378C26.9492 23.1201 27.7954 22.2172 28.8431 22.2172C29.8706 22.2172 30.7168 23.1201 30.7168 24.2378V32.0838C30.7168 33.1801 29.8706 34.083 28.8229 34.083C27.7954 34.083 26.9492 33.1801 26.9492 32.0838V24.2378Z"/>
</mask>
<path fill-rule="evenodd" clip-rule="evenodd" d="M18.4062 5.5144C17.3787 5.5144 16.5325 6.41723 16.5325 7.53502V32.0833C16.5325 33.1796 17.3787 34.0824 18.4062 34.0824C19.4538 34.0824 20.3 33.1796 20.3 32.0833V7.53502C20.3 6.41723 19.4538 5.5144 18.4062 5.5144ZM7.82925 13.4471C6.80175 13.4471 5.95557 14.3499 5.95557 15.4677L5.95557 32.084C5.95557 33.1803 6.80175 34.0831 7.82925 34.0831C8.8769 34.0831 9.72308 33.1803 9.72308 32.084V15.4677C9.72308 14.3499 8.8769 13.4471 7.82925 13.4471ZM26.9492 24.2378C26.9492 23.1201 27.7954 22.2172 28.8431 22.2172C29.8706 22.2172 30.7168 23.1201 30.7168 24.2378V32.0838C30.7168 33.1801 29.8706 34.083 28.8229 34.083C27.7954 34.083 26.9492 33.1801 26.9492 32.0838V24.2378Z" fill="url(#paint0_linear_42_40)"/>
<path d="M16.9325 7.53502C16.9325 6.61046 17.6263 5.9144 18.4062 5.9144V5.1144C17.1311 5.1144 16.1325 6.224 16.1325 7.53502H16.9325ZM16.9325 32.0833V7.53502H16.1325V32.0833H16.9325ZM18.4062 33.6824C17.6236 33.6824 16.9325 32.9835 16.9325 32.0833H16.1325C16.1325 33.3757 17.1337 34.4824 18.4062 34.4824V33.6824ZM19.9 32.0833C19.9 32.9806 19.2116 33.6824 18.4062 33.6824V34.4824C19.6961 34.4824 20.7 33.3786 20.7 32.0833H19.9ZM19.9 7.53502V32.0833H20.7V7.53502H19.9ZM18.4062 5.9144C19.2089 5.9144 19.9 6.61333 19.9 7.53502H20.7C20.7 6.22113 19.6988 5.1144 18.4062 5.1144V5.9144ZM6.35557 15.4677C6.35557 14.5432 7.04936 13.8471 7.82925 13.8471V13.0471C6.55413 13.0471 5.55557 14.1567 5.55557 15.4677H6.35557ZM6.35557 32.084L6.35557 15.4677H5.55557L5.55557 32.084H6.35557ZM7.82925 33.6831C7.04668 33.6831 6.35557 32.9842 6.35557 32.084H5.55557C5.55557 33.3764 6.55681 34.4831 7.82925 34.4831V33.6831ZM9.32308 32.084C9.32308 32.9813 8.63466 33.6831 7.82925 33.6831V34.4831C9.11914 34.4831 10.1231 33.3793 10.1231 32.084H9.32308ZM9.32308 15.4677V32.084H10.1231V15.4677H9.32308ZM7.82925 13.8471C8.63197 13.8471 9.32308 14.546 9.32308 15.4677H10.1231C10.1231 14.1538 9.12184 13.0471 7.82925 13.0471V13.8471ZM28.8431 21.8172C27.5505 21.8172 26.5492 22.924 26.5492 24.2378H27.3492C27.3492 23.3162 28.0403 22.6172 28.8431 22.6172V21.8172ZM31.1168 24.2378C31.1168 22.9268 30.1182 21.8172 28.8431 21.8172V22.6172C29.623 22.6172 30.3168 23.3133 30.3168 24.2378H31.1168ZM31.1168 32.0838V24.2378H30.3168V32.0838H31.1168ZM28.8229 34.483C30.1128 34.483 31.1168 33.3791 31.1168 32.0838H30.3168C30.3168 32.9812 29.6283 33.683 28.8229 33.683V34.483ZM26.5492 32.0838C26.5492 33.3762 27.5505 34.483 28.8229 34.483V33.683C28.0403 33.683 27.3492 32.984 27.3492 32.0838H26.5492ZM26.5492 24.2378V32.0838H27.3492V24.2378H26.5492Z" fill="url(#paint1_linear_42_40)" mask="url(#path-1-inside-1_42_40)"/>
</g>
<defs>
<filter id="filter0_bd_42_40" x="-9.04443" y="-9.4856" width="54.7612" height="58.5688" filterUnits="userSpaceOnUse" color-interpolation-filters="sRGB">
<feFlood flood-opacity="0" result="BackgroundImageFix"/>
<feGaussianBlur in="BackgroundImageFix" stdDeviation="7.5"/>
<feComposite in2="SourceAlpha" operator="in" result="effect1_backgroundBlur_42_40"/>
<feColorMatrix in="SourceAlpha" type="matrix" values="0 0 0 0 0 0 0 0 0 0 0 0 0 0 0 0 0 0 127 0" result="hardAlpha"/>
<feOffset dx="5" dy="5"/>
<feGaussianBlur stdDeviation="5"/>
<feColorMatrix type="matrix" values="0 0 0 0 1 0 0 0 0 0.447059 0 0 0 0 0.368627 0 0 0 0.5 0"/>
<feBlend mode="normal" in2="effect1_backgroundBlur_42_40" result="effect2_dropShadow_42_40"/>
<feBlend mode="normal" in="SourceGraphic" in2="effect2_dropShadow_42_40" result="shape"/>
</filter>
<linearGradient id="paint0_linear_42_40" x1="-0.453836" y1="26.7187" x2="12.4094" y2="51.4862" gradientUnits="userSpaceOnUse">
<stop stop-color="white"/>
<stop offset="1" stop-color="white" stop-opacity="0.2"/>
</linearGradient>
<linearGradient id="paint1_linear_42_40" x1="9.89714" y1="8.8427" x2="28.4928" y2="28.8043" gradientUnits="userSpaceOnUse">
<stop stop-color="white" stop-opacity="0.25"/>
<stop offset="1" stop-color="white" stop-opacity="0"/>
</linearGradient>
</defs>
</svg>
